<svg height="320" version="1.1" width="320" xmlns="http://www.w3.org/2000/svg" xmlns:xlink="http://www.w3.org/1999/xlink" style="overflow: hidden; position: relative; left: -0.5px; top: -0.796875px;" viewBox="0 0 320 320" preserveAspectRatio="xMidYMid meet" id="main_svg"><svg height="320" version="1.1" width="320" xmlns="http://www.w3.org/2000/svg" xmlns:xlink="http://www.w3.org/1999/xlink" style="overflow: hidden; position: relative;" viewBox="0 0 160 160" preserveAspectRatio="xMidYMid meet" id="imported_svg_layer_1"><path fill="#0070fb" stroke="none" d="M0,80A80,80,0,1,0,160,80A80,80,0,1,0,0,80" stroke-width="0" transform="matrix(1,0,0,1,0,0)" style="-webkit-tap-highlight-color: rgba(0, 0, 0, 0); display: none;"></path><desc style="-webkit-tap-highlight-color: rgba(0, 0, 0, 0);">Created with Logotizer</desc><defs style="-webkit-tap-highlight-color: rgba(0, 0, 0, 0);"></defs></svg><svg height="320" version="1.1" width="320" xmlns="http://www.w3.org/2000/svg" xmlns:xlink="http://www.w3.org/1999/xlink" style="overflow: hidden; position: relative;" viewBox="0 0 160 160" preserveAspectRatio="xMidYMid meet" id="imported_svg_layer_2"><desc style="-webkit-tap-highlight-color: rgba(0, 0, 0, 0);">Created with Logotizer</desc><defs style="-webkit-tap-highlight-color: rgba(0, 0, 0, 0);"></defs><path fill="#ffffff" stroke="#d5d5d5" d="M92.7,108.8C92.7,110.89999999999999,91.10000000000001,112.5,89.10000000000001,112.5H70.9C68.9,112.5,67.30000000000001,110.8,67.30000000000001,108.8V95.7L0,80V142.5C0,146.6,3.3,150,7.3,150H152.8C156.8,150,160.10000000000002,146.7,160.10000000000002,142.5V80.1L92.7,95.7V108.8ZM152.7,40H7.3C3.3,40,0,43.3,0,47.3V71.6L67.3,86.89999999999999V79.89999999999999C67.3,77.89999999999999,68.89999999999999,76.3,70.89999999999999,76.3H89.1C91.1,76.3,92.69999999999999,77.89999999999999,92.69999999999999,79.89999999999999V86.89999999999999L160,71.7V47.3C160,43.3,156.7,40,152.7,40ZM51.9,18.6C51.9,13.200000000000001,56.3,8.700000000000001,61.8,8.700000000000001H98.19999999999999C103.6,8.700000000000001,108.1,13.100000000000001,108.1,18.6V28.200000000000003H116.69999999999999V18.6C116.7,8.5,108.4,0.2,98.3,0.2H61.8C51.7,0.2,43.4,8.5,43.4,18.6V28.200000000000003H52L51.9,18.6Z" stroke-width="2" transform="matrix(1,0,0,1,0,0)" style="-webkit-tap-highlight-color: rgba(0, 0, 0, 0); display: none; cursor: move;"></path></svg><desc style="-webkit-tap-highlight-color: rgba(0, 0, 0, 0);">Created with Logotizer</desc><defs style="-webkit-tap-highlight-color: rgba(0, 0, 0, 0);"></defs><path fill="#000000" stroke="#0070fb" d="M-53.33,0L-53.33,-170.63L64.33,-170.63L64.33,-144.26L-19.11,-144.26L-19.11,-97.27L52.38,-97.27L52.38,-70.9L-19.11,-70.9L-19.11,0L-53.33,0Z" stroke-width="2" transform="matrix(1.4,0,0,1.4,165,287.3421)" style="-webkit-tap-highlight-color: rgba(0, 0, 0, 0);"></path></svg>